<svg width="141" height="46" viewBox="0 0 141 46" fill="none" xmlns="http://www.w3.org/2000/svg">
<path fill-rule="evenodd" clip-rule="evenodd" d="M4.05947 31.3725C1.96185 29.4338 0.499878 27.0184 0.499878 24.8572C0.499878 22.9503 1.93007 20.6302 3.51917 18.5962C6.6656 14.4963 14.6747 5.15234 17.1537 3.43611C19.0606 1.40205 21.8574 0.734631 24.9085 0.829977L130.933 1.46562C131.855 0.671067 133.063 0.194336 134.366 0.194336H135.319C138.212 0.194336 140.563 2.54621 140.563 5.43838V9.72896C140.563 12.049 139.07 13.9878 137.004 14.687C139.101 16.6257 140.563 19.0411 140.563 21.2023C140.563 22.7278 139.642 24.5076 138.466 26.1921C135.796 30.0377 125.753 41.3521 123.91 42.6234C122.098 44.5303 121.081 45.4202 116.155 45.2295L10.1298 44.5939C9.20816 45.3884 8.00045 45.8652 6.69738 45.8652H5.74392C2.85175 45.8652 0.499878 43.5133 0.499878 40.6211V36.3305C0.499878 34.0422 1.99364 32.0718 4.05947 31.3725Z" fill="url(#paint0_linear_2667_24052)"/>
<path fill-rule="evenodd" clip-rule="evenodd" d="M133.762 6.16903L24.7816 5.50161C24.7816 5.50161 22.5886 5.37448 21.0631 6.39151H21.0313L23.1925 14.5277C24.2095 13.034 25.0676 11.7945 25.6079 11.0953C26.8474 9.47437 29.104 8.99763 31.0745 8.99763H133.762V9.72862C133.762 10.0464 134.017 10.3007 134.334 10.3007H135.288C135.606 10.3007 135.86 10.0464 135.86 9.72862V5.43804C135.86 5.12022 135.606 4.86597 135.288 4.86597H134.334C134.017 4.86597 133.762 5.12022 133.762 5.43804V6.16903ZM19.4104 7.91704L21.7623 16.6571C21.2856 17.3563 20.7771 18.1191 20.2686 18.8501L17.7896 9.56971C18.3934 8.93407 18.9337 8.39378 19.4104 7.91704ZM16.2322 11.2224C15.7237 11.7627 15.1834 12.3665 14.6113 12.9386L17.3764 23.2042L18.8384 20.9795L16.2005 11.1906L16.2322 11.2224ZM13.054 14.6548L15.9144 25.3654C15.3741 26.1599 14.8656 26.9227 14.4207 27.5584L11.4331 16.4346C11.9417 15.8308 12.482 15.2269 13.0222 14.6548H13.054ZM9.93938 18.2144C7.26969 21.3291 5.20386 24.0306 5.20386 24.8569C5.20386 26.9545 11.4331 31.8172 12.8951 29.8784L13.054 29.6878L9.97117 18.2144H9.93938Z" fill="#0F022D"/>
<path fill-rule="evenodd" clip-rule="evenodd" d="M7.23808 39.858L116.219 40.5254C116.219 40.5254 118.412 40.6526 119.937 39.6355H119.969L117.808 31.4993C116.791 32.9931 115.933 34.2326 115.392 34.9318C114.153 36.5527 111.896 37.0294 109.926 37.0294H7.23808V36.2984C7.23808 35.9806 6.98382 35.7581 6.69778 35.7581H5.74432C5.4265 35.7581 5.17224 36.0124 5.17224 36.2984V40.589C5.17224 40.9068 5.4265 41.1611 5.74432 41.1611H6.69778C7.0156 41.1611 7.23808 40.9068 7.23808 40.589V39.858ZM121.59 38.11L119.238 29.3699C119.715 28.6707 120.223 27.908 120.732 27.177L123.211 36.4573C122.607 37.093 122.067 37.6333 121.59 38.11ZM124.768 34.8047C125.277 34.2644 125.817 33.6605 126.389 33.0884L123.624 22.8228L122.13 25.0476L124.768 34.8364V34.8047ZM127.946 31.3722L125.054 20.6617C125.594 19.8671 126.103 19.1043 126.548 18.4687L129.535 29.5924C129.027 30.1963 128.487 30.7683 127.946 31.3722ZM131.093 27.8126C133.762 24.698 135.828 21.9965 135.828 21.1702C135.828 19.0725 129.599 14.2099 128.137 16.1486L127.978 16.3393L131.061 27.8126H131.093Z" fill="#0F022D"/>
<path d="M34.8426 15.1634L34.3023 16.8479H39.0061L38.1162 19.6765H33.4124L31.8869 24.5391H28.0413L31.9505 12.1759H41.7711L40.8176 15.1634H34.8744H34.8426Z" fill="#E6FFFF"/>
<path d="M49.749 24.5391H46.1894L46.3483 22.219H42.5027L41.1996 24.5391H37.2269L44.6003 12.1759H50.0986L49.7172 24.5391H49.749ZM46.8886 14.4324L44.0918 19.3904H46.539L46.8886 14.4324Z" fill="#E6FFFF"/>
<path d="M62.2705 24.5391H58.3613L56.518 17.8013L54.3886 24.5391H50.6383L54.5157 12.1759H58.4249L60.3001 18.8819L62.4295 12.1759H66.1797L62.3023 24.5391H62.2705Z" fill="#E6FFFF"/>
<path d="M74.2846 15.2589L71.3607 24.5075H67.5151L70.439 15.2589H66.5616L67.5468 12.1443H79.1791L78.1938 15.2589H74.3164H74.2846Z" fill="#E6FFFF"/>
<path d="M86.9018 24.5391H83.3422L83.5011 22.219H79.6555L78.3525 24.5391H74.3797L81.7531 12.1759H87.2514L86.8701 24.5391H86.9018ZM84.0414 14.4324L81.2446 19.3904H83.6918L84.0414 14.4324Z" fill="#E6FFFF"/>
<path d="M98.0253 14.8774H94.4021L93.8936 16.4666L100.663 18.0874L98.8198 23.9989C97.1036 24.571 95.2285 24.8252 93.1626 24.8252C90.9379 24.8252 89.1581 24.571 87.8232 23.9989L88.9356 20.4711H92.6223L92.2092 21.8059H95.8323L96.3408 20.1851L89.5395 18.5642L91.3828 12.6845C93.0991 12.1124 95.006 11.8582 97.04 11.8582C99.2648 11.8582 101.045 12.1124 102.348 12.6845L101.267 16.1805H97.5803L97.9935 14.8457L98.0253 14.8774Z" fill="#E6FFFF"/>
<path d="M107.466 24.5393H103.62L104.987 20.2487L103.429 12.1443H107.148L107.752 17.1659L111.248 12.1443H115.443L108.8 20.2805L107.434 24.5075L107.466 24.5393Z" fill="#E6FFFF"/>
<path d="M30.6155 34.3601L31.4101 31.7858H29.2489L28.4543 34.3601H26.325L28.4861 27.527H30.6155L29.821 30.006H31.9822L32.7767 27.527H34.9061L32.7449 34.3601H30.6155Z" fill="#E6FFFF"/>
<path d="M42.1845 27.8446L40.214 34.0739C39.2606 34.3917 38.1482 34.5188 36.9405 34.5188C35.7328 34.5188 34.684 34.3599 33.7941 34.0739L35.7646 27.8446C36.7816 27.5268 37.894 27.3997 39.0699 27.3997C40.2776 27.3997 41.3582 27.5586 42.1845 27.8446ZM36.3049 32.8662H38.466L39.6738 29.0523H37.5126L36.3049 32.8662Z" fill="#E6FFFF"/>
<path d="M49.5581 27.8446L48.8589 30.0693H46.7295L47.0473 29.0523H44.8862L43.6784 32.8662H45.8396L46.1574 31.8491H48.2868L47.5876 34.0739C46.6342 34.3917 45.5218 34.5188 44.3141 34.5188C43.1064 34.5188 42.0576 34.3599 41.1677 34.0739L43.1382 27.8446C44.1552 27.5268 45.2675 27.3997 46.4435 27.3997C47.6512 27.3997 48.7318 27.5586 49.5581 27.8446Z" fill="#E6FFFF"/>
<path d="M55.088 34.3601H52.9586L52.1005 31.754H51.4331L50.6068 34.3601H48.4774L50.6068 27.527H52.7362L51.9416 30.0378H52.3548L54.7066 27.527H57.1856L53.9121 30.9277L55.088 34.3283V34.3601Z" fill="#E6FFFF"/>
<path d="M59.283 29.2114L58.997 30.1331H61.7938L61.3171 31.6904H58.5202L58.2024 32.7075H61.6984L61.1899 34.3601H55.6599L57.821 27.527H63.3511L62.8108 29.1796H59.283V29.2114Z" fill="#E6FFFF"/>
<path d="M65.9879 34.3601H63.8585L64.6213 32.0082L63.7632 27.5587H65.829L66.1786 30.3238L68.1173 27.5587H70.4374L66.7825 32.04L66.0197 34.3601H65.9879Z" fill="#E6FFFF"/>
<path d="M79.5602 34.3601H76.6363L77.0177 30.8005L75.1107 34.3601H72.2186L73.0767 27.527H75.1425L74.3162 32.4532L76.9541 27.527H79.0199L78.4796 32.5803L80.7997 27.527H83.0563L79.592 34.3601H79.5602Z" fill="#E6FFFF"/>
<path d="M90.0161 27.8446L88.0456 34.0739C87.0922 34.3917 85.9798 34.5188 84.7721 34.5188C83.5644 34.5188 82.5156 34.3599 81.6257 34.0739L83.5962 27.8446C84.6132 27.5268 85.7256 27.3997 86.9015 27.3997C88.1092 27.3997 89.1898 27.5586 90.0161 27.8446ZM84.1365 32.8662H86.2976L87.5053 29.0523H85.3442L84.1365 32.8662Z" fill="#E6FFFF"/>
<path d="M97.0717 27.5587C97.0717 29.1478 96.5632 31.023 95.7686 32.2942H94.6562L95.3554 34.3919H93.3214L92.6858 32.2942H91.7005L91.0331 34.3919H88.9037L91.0649 27.5587H97.0399H97.0717ZM94.2749 30.7687C94.5291 30.292 94.7198 29.6563 94.7516 29.1478H92.6858L92.1772 30.7687H94.2749Z" fill="#E6FFFF"/>
<path d="M102.061 32.6756L101.521 34.3919H96.1814L98.3426 27.5587H100.472L98.8511 32.6756H102.061Z" fill="#E6FFFF"/>
<path d="M107.432 27.5587C108.83 27.5587 109.943 28.0037 110.451 28.7982L109.053 33.2159C108.481 33.9787 107.337 34.3919 106.034 34.3919H102.283L104.445 27.5587H107.432ZM104.921 32.7074H105.97C106.542 32.7074 106.924 32.5803 107.178 32.4214L108.099 29.4656C107.909 29.3067 107.496 29.1796 107.019 29.1796H106.034L104.921 32.6756V32.7074Z" fill="#E6FFFF"/>
<defs>
<linearGradient id="paint0_linear_2667_24052" x1="140.563" y1="45.8652" x2="-2.02965" y2="10.3505" gradientUnits="userSpaceOnUse">
<stop stop-color="#36D0E6"/>
<stop offset="1" stop-color="#2C153F"/>
</linearGradient>
</defs>
</svg>
